<?xml version="1.0"?><svg height="32" id="svg5" version="1.1" viewBox="0 0 32 32" width="32" xmlns="http://www.w3.org/2000/svg" xmlns:svg="http://www.w3.org/2000/svg"><defs id="defs2"/><g id="layer1" transform="translate(-252,-292)"><path d="m 280.35938,306.89453 c -0.6421,0 -1.28403,0.24106 -1.76758,0.72461 l -2.9336,2.93555 c -0.32532,-0.51311 -0.83246,-0.91273 -1.45703,-1.08008 l -6.92187,-1.85547 c -0.55183,-0.14786 -1.12242,-0.17564 -1.67578,-0.0918 -0.55337,0.0839 -1.09097,0.27929 -1.57422,0.58399 l -4.32032,2.72461 -0.3496,-0.60547 c -0.43541,-0.75414 -1.43727,-1.02134 -2.19141,-0.58594 l -3.28516,1.89649 c -0.75414,0.4354 -1.02134,1.43531 -0.58593,2.18945 l 4.89648,8.48242 c 0.4354,0.75414 1.43531,1.02329 2.18945,0.58789 l 3.28516,-1.89844 c 0.75414,-0.4354 1.02329,-1.43531 0.58789,-2.18945 l -0.0644,-0.11133 1.87304,-1.26758 6.89258,1.35547 c 0.94431,0.18564 1.78651,-0.0778 2.45899,-0.76562 2.22251,-2.27326 4.44977,-4.53621 6.70703,-6.76367 a 1.0001,1.0001 0 0 0 0.004,-0.004 c 0.96711,-0.96711 0.96711,-2.57 0,-3.53711 -0.48355,-0.48355 -1.12547,-0.72461 -1.76757,-0.72461 z m 0,1.98242 c 0.12472,0 0.24946,0.0522 0.35351,0.15625 0.20754,0.20754 0.20639,0.49904 0,0.70703 v 0.002 c -2.2699,2.24004 -4.50302,4.51086 -6.72656,6.78515 -0.0408,0.0418 -0.58764,0.21041 -0.64453,0.19922 l -7.29883,-1.43359 a 1.0001,1.0001 0 0 0 -0.75195,0.15234 l -2.10157,1.41992 -2.48047,-4.29492 4.38672,-2.76562 c 0.49575,-0.31258 1.09797,-0.40559 1.66407,-0.25391 l 6.92382,1.85547 c 0.28427,0.0762 0.42969,0.32902 0.35352,0.61328 -0.0762,0.28425 -0.32708,0.42968 -0.61133,0.35352 l -4.34766,-1.16407 a 1,1 0 0 0 -1.2246,0.70704 1,1 0 0 0 0.70703,1.2246 l 4.34765,1.16407 c 0.97583,0.26147 1.98682,-0.10874 2.5918,-0.85157 a 1,1 0 0 0 0.26367,-0.17578 l 4.24219,-4.24414 c 0.10405,-0.10405 0.22879,-0.15625 0.35352,-0.15625 z m -22.53321,2.69727 0.48438,0.83789 a 1,1 0 0 0 0.13672,0.40234 1,1 0 0 0 0.24414,0.25782 l 3.63476,6.29687 -2.59961,1.5 -4.5,-7.79492 z" id="path453471" style="color:#000000;fill:#000000;fill-rule:evenodd;stroke-linecap:round;stroke-linejoin:round;stroke-miterlimit:4.1;-inkscape-stroke:none"/><path d="m 274,299.01367 a 1,1 0 0 0 -1,1 1,1 0 0 0 1,1 1,1 0 0 0 1,-1 1,1 0 0 0 -1,-1 z" id="path453449" style="color:#000000;fill:#000000;fill-rule:evenodd;stroke-linecap:round;stroke-linejoin:round;stroke-miterlimit:4.1;-inkscape-stroke:none"/><path d="m 264,299.01367 a 1,1 0 0 0 -1,1 1,1 0 0 0 1,1 1,1 0 0 0 1,-1 1,1 0 0 0 -1,-1 z" id="path453447" style="color:#000000;fill:#000000;fill-rule:evenodd;stroke-linecap:round;stroke-linejoin:round;stroke-miterlimit:4.1;-inkscape-stroke:none"/><path d="m 269,297.01367 c -1.64501,0 -3,1.35499 -3,3 0,1.64501 1.35499,3 3,3 1.64501,0 3,-1.35499 3,-3 0,-1.64501 -1.35499,-3 -3,-3 z m 0,2 c 0.56413,0 1,0.43587 1,1 0,0.56413 -0.43587,1 -1,1 -0.56413,0 -1,-0.43587 -1,-1 0,-0.56413 0.43587,-1 1,-1 z" id="path453439" style="color:#000000;fill:#000000;fill-rule:evenodd;stroke-linecap:round;stroke-linejoin:round;stroke-miterlimit:4.1;-inkscape-stroke:none"/><path d="m 262,294.01367 a 1.0001,1.0001 0 0 0 -1,1 c 0,0.56413 -0.43587,1 -1,1 a 1.0001,1.0001 0 0 0 -1,1 v 6 a 1.0001,1.0001 0 0 0 1,1 c 0.56413,0 1,0.43587 1,1 a 1.0001,1.0001 0 0 0 1,1 h 14 a 1.0001,1.0001 0 0 0 1,-1 c 0,-0.56413 0.43587,-1 1,-1 a 1.0001,1.0001 0 0 0 1,-1 v -6 a 1.0001,1.0001 0 0 0 -1,-1 c -0.56413,0 -1,-0.43587 -1,-1 a 1.0001,1.0001 0 0 0 -1,-1 z m 0.58203,2 h 12.83594 c 0.30652,0.76385 0.81803,1.27582 1.58203,1.58203 v 4.83399 c -0.76468,0.30636 -1.27762,0.8193 -1.58398,1.58398 h -12.83204 c -0.30636,-0.76468 -0.8193,-1.27762 -1.58398,-1.58398 v -4.83399 c 0.764,-0.30621 1.27551,-0.81818 1.58203,-1.58203 z" id="path453427" style="color:#000000;fill:#000000;fill-rule:evenodd;stroke-linecap:round;stroke-linejoin:round;stroke-miterlimit:4.1;-inkscape-stroke:none"/></g></svg>