<?xml version="1.0" encoding="UTF-8"?>
<svg id="Layer_1" xmlns="http://www.w3.org/2000/svg" xmlns:xlink="http://www.w3.org/1999/xlink" version="1.1" viewBox="0 0 1024 1024">
  <!-- Generator: Adobe Illustrator 29.8.2, SVG Export Plug-In . SVG Version: 2.1.1 Build 3)  -->
  <defs>
    <style>
      .st0 {
        fill-opacity: 0;
      }

      .st0, .st1, .st2 {
        fill: #b58982;
      }

      .st3 {
        fill: #f4d5bd;
      }

      .st4, .st5 {
        fill: #b5837c;
      }

      .st4, .st1 {
        fill-opacity: .2;
      }

      .st5, .st2 {
        fill-opacity: .1;
      }

      .st6 {
        fill: #fb9b0d;
      }

      .st7 {
        fill: #877458;
      }

      .st8 {
        fill: url(#linear-gradient);
      }

      .st9 {
        fill: #fff;
      }

      .st10 {
        fill: #f9f0e4;
      }
    </style>
    <linearGradient id="linear-gradient" x1="805.7" y1="828.2" x2="819.8" y2="831.3" gradientTransform="translate(214 180) scale(.5)" gradientUnits="userSpaceOnUse">
      <stop offset="0" stop-color="#b28681" stop-opacity=".1"/>
      <stop offset="1" stop-color="#b2847f" stop-opacity=".2"/>
    </linearGradient>
  </defs>
  <path class="st9" d="M182.5,451.2c0-1.9-.2-4.3.6-5.9,4.9-9.2,11.1-18.9,16.6-27.8l17.4-28c2-3.2,11.4-18.1,13.5-19.5,9.6-6.4,28.7-14.7,39.1-19.6l80.9-37.8c14-6.6,28-14,42.3-19.8,1.6-.7,3.1-.9,4.9-.9s4.3.4,6.3,1.3c5.1,2.3,46,27.8,48.4,30.6,2,2.3,1.9,9.2,2,12.3.5,23.5,0,47.2,0,70.7v211.1c0,11.2.4,23.4-.4,34.5-.3,3.8-3.6,6.2-6.5,8.3-12.1,6.8-27.5,13.6-39.3,21.1-3.6,2.2-8.7,11.5-12.1,14.9-7,8.8-13.7,13.3-22.8,19.5-17.4,8.9-32.1,13.3-51.8,8.7-5.1,2-10.2,5-15.1,7.5l-22.4,11.5-27.4,13.9c-4.2,2.1-10.1,4.6-13.9,6.8,13.9,16.5,33.7,26.8,55.1,28.7,7.9.6,20.2.3,28.5.3h353.5c6.5,0,15.5.2,21.7-.6,16-2.2,31-9,43.2-19.5,14.8-12.9,24-31.1,25.6-50.6.4-9.3.2-20.7.2-30.1v-53.3c0-7.5-.7-25.2.3-31.8l3.2-1.9c1.5-1.1,2.3-1,4.1-1.3,3.5.9,6.5,1.2,7.1,5.5.6,4.5.3,12.7.3,17.5v73.2c0,7.1.3,18.5-.5,25.2-.5,19.5-12.8,43.1-26.8,56.3-4.9,4.6-17.6,14.6-24,16.7-20.1,11.5-42,10-64.2,10h-354.3c-4.4,0-14.1.2-18.2-.4-23.8.2-57.1-17.6-69.2-38.3-2.9-.7-6.2-1.7-8.7-3.5-11.2-7.8-23.9-15.2-33.8-24.5-3.8-3.5-3.4-10.1-3.1-14.8-.7-11.2-.1-30-.1-41.9v-182.2c0-16-.6-36.3.2-52.1h-.4ZM233,482.1c.7,61.8,0,124.9.1,186.8v53.7c0,8.7-.3,21.4.4,29.7,5.6-1.8,20.1-9.6,26-12.6l46.1-23.5c-6.6-5.7-11.2-11.3-14.6-19.4-21.6-51.7,27.7-128,82.4-131.6,12.9-.9,25.7,3.3,35.5,11.8,24,21.2,19.8,55.7,9.4,82.6,5.4-2.5,15.8-7.9,20.7-11.3v-17.1c-.5-19,0-41.3,0-60.5v-193.8c0-11-.7-27.9,0-38.2l-.8-6.9c-6.5,2.4-14.3,6.4-20.8,9.4l-35.2,16.6c-36.5,17.2-72.9,34.5-109.2,52.1v32.3c.2,13.3,3.4,19.2-10.5,25.6-9.8,4.5-19.8,9.6-29.5,14.1v.2ZM239.5,462.2c6.6-2.6,12.6-5.9,18.8-8.4-.1-3.7,0-21.6-.6-23.4-5.7,10.7-12.5,20.3-18.4,31.4l.2.5h0Z"/>
  <path class="st10" d="M297.3,808.5l-2.1-.7c2.6-1,74.8-.4,82.2-.4h314.7c9.4,0,13-.6,22.1-2.5,5.4-1.1,16.7-6.4,19.8-6.1-20.1,11.5-42,10-64.2,10h-354.3c-4.4,0-14.1.2-18.2-.4h0Z"/>
  <path class="st10" d="M182.5,451.2l.7.3c.8,24.1.9,274.1-.3,275.8h-.5c-.7-11.2-.1-30-.1-41.9v-182.2c0-16-.6-36.3.2-52.1h0Z"/>
  <path class="st3" d="M770.7,607.6l3.2-1.9c-.2,1.8-1,2.6-2.1,4.1v69.5c0,6.5.8,40.6-1.5,43.5.4-9.3.2-20.7.2-30.1v-53.3c0-7.5-.7-25.2.3-31.8h-.1Z"/>
  <path class="st9" d="M401.7,451c4.1-.2,7.5.8,9.3,4.9,1.6,3.7-1.4,7.8-4.6,9.5-8.1,4.3-16.4,8.2-24.6,12.3l-47.2,22.9-40.7,19.8c-7.3,3.6-16.7,8.5-24.1,11.6-4.2,0-7-.8-9.1-4.9-2-3.7.8-7.8,4.2-9.6,5.6-2.8,11.4-5.4,17.1-8.2l34.5-16.9,52.7-25.7c10.5-5.1,21.9-11,32.4-15.7h.1Z"/>
  <path class="st9" d="M402.3,399.5c4,0,7.7,2.5,8.8,6.5,1.1,4.2-2.4,6.8-5.7,8.5-7.8,4.1-15.9,7.9-23.9,11.7l-41.6,20.2-22.6,11c-4.5,2.2-12.1,6.3-16.6,7.5-3.7,0-6-1.2-7.9-4.4-5.1-8.5,11.4-13.8,17.3-16.7l23.9-11.5c22.1-10.7,46.1-22.7,68.3-32.8h0Z"/>
  <path class="st9" d="M260,574c.8-3.5,1.8-5.5,5-7.3,5.4-3,11.4-5.9,16.9-8.6l33.2-16.5c18.3-9.2,36.7-18.3,55.2-27.2,9.7-4.7,19.2-9.6,29.1-14,4.1-1.8,7.7-2.1,10.4,2.2,1.3,2.1,1.6,5.2.4,7.4-.9,1.7-3.8,3.8-5.5,4.7-16.7,8.3-33.4,16.5-50.1,24.7l-55.1,27.3c-6,3-27.7,14.5-32.7,15-3.9-3.3-4-1.9-6.8-7.6h0Z"/>
  <path class="st6" d="M370.7,580.2c7.7-1.1,18.4.6,24.6,5.2,29.5,21.6,15.4,67.2-1.6,91.7-13.2,19-28.5,30.7-50.6,34.9-23.4,1-38.6-9.2-42.6-33.3-6.5-39.9,29.8-92.9,70.1-98.5h.1Z"/>
  <path class="st9" d="M384,605.9c8.2-.3,10.7,5.8,6.9,12.5-12,21.1-25.1,41.8-37.8,62.5-6.1,9.9-20.6-7.9-25.3-12.5-1.9-1.8-8.6-7.4-8.4-9.8,1.7-20.2,20.3,1.1,26.3,6.6,11.4-17.8,22-36.5,33.4-54.2,1.4-2.2,2.6-3.5,4.7-5h.2Z"/>
  <path class="st7" d="M396.6,307.5c3.6,0,21,12.1,25.5,14.9-12,6.3-27.2,13.1-39.6,19l-88.6,41.9c-10.8,5.1-23.4,10.6-33.4,16.7-1.7,1.1-12,18.2-13.8,21l-23.3,37.4-1.3,1.6c-2,.2-19-10.9-22.3-12.8,3.7-7.3,38.6-63,42.1-66,4.7-4,31.7-15.5,39.3-19,38.5-18.1,77.4-35.6,115.4-54.8h0Z"/>
  <path class="st7" d="M197.4,463.1c4.3,1.8,17,10.2,21.1,13.1v271.7c-5.9-3-15.8-10.5-21.1-14.5v-270.3h0Z"/>
  <path class="st3" d="M439.1,338.8c.2-1.5.4-5.2.8-6.1v1-.2c.9,16,.7,31.3.7,47.3v71.1c-.1,0,0,108.8,0,108.8,0,24.7.5,51.3-.6,75.8h-.3l-.6-5.1c-.6-19,0-41.3,0-60.5v-193.8c0-11-.7-27.9,0-38.2h0Z"/>
  <path class="st9" d="M494.4,294.5c-8.3,2.7-25.8,12-33.8,10.1-1.9-.4-3.3-1.5-4.4-3.1-1-1.7-1.2-3.4-.7-5.3,1.6-6.2,22.4-38.8,27.2-47,10.8-18.2,21.1-37.1,32.7-54.7,1.1-1.7,2.6-4.2,4.4-5.3,2.2-1.2,5.6-1.1,8-.3,3,1,54.7,50.6,61.8,57.9,1.7,1.7,4.2,4.2,5,6.4.5,1.3.3,3-.3,4.2-2.8,6-25.4,11.8-32.2,14.3v81.7c12,2.9,17.3,5.2,28.2,10.6,3.3-34,19-52.5,51.2-64.4,47.4-17.5,91.6,23.7,114.7,61.3,4.8,8,9.2,16.2,13.2,24.5.7,1.4,1.8,4.4,3,5,2.9-3,1.5-33.8,1.8-40.7l.2-.3c.5-.9,1.1-1.8,1.7-2.6,1.9-2.3,42.4-28.2,47.6-30.9,1.2-.6,2.4-1.1,3.7-1.2,1.9,0,4,.8,5.2,2.2,3.7,4.4,2.3,33.3,2.3,40.1,5.8,3.1,36.2,18.3,37.7,22.3.8,2.1.6,4.8-.4,6.7-2,3.6-46.1,32.3-51.4,33.8-5.1,1.5-30.9-14.9-36.6-18.2-2.1,1-4,1.7-5.8,3.2-.8,1.8-.6,1.1.2,3.5,4.5,9.9,8.1,20.1,10.8,30.6,4.9,19.8,8.2,40.8,7.9,61.3-.4,7.7-1.7,24-4.1,31.1-2.7,17.5-13.9,35.6-29.1,44.5-3.2,1.9-6.6,3.6-10,5.2-37.8,14-62.5,8.4-92.4-19.3-19.1-17.6-29.7-34.3-41.8-57l-.5-1.1c-.8,1.5-.9,40.8-.6,45-.2,6,0,15-.6,20.8-.4,1.8-.6,3.1-.9,5-4.7,13.5-10.5,21.7-22.8,29.6-30.6,19.7-91.2,18.8-115.9-11.1l-4.3-5.1c-3.1-5.3-4.5-9.1-6.4-14.9-.2-2-.4-2.8-.9-4.7-.7-9.4-.2-21.5-.2-31.3v-104.7c0-33.2-1.8-48.5,28.2-68.8-.8-5.1-.5-18.4-.5-24.1,0-15,0-30-.1-45v.2ZM631.5,396.7c-.5,23.8,2.1,37.1,10.3,61.1,7.7,22.6,42.4,81.9,71.9,69.7,24.9-10.3,17.5-67.4,7.9-90.1-4.4,2.6-7.9,4.5-12.5,6.7,5,16.1,10.3,58.4-20.8,52.4-10.5-2-21.5-16.1-26.6-25.2-9.6-17.1-16.2-41.2-11.5-60.9,6-22.1,29.2-14.8,40-1.5,6.4,7.9,9.1,11.6,13.4,20.6,4.3-2,8.5-4.5,12.7-6.8-10.7-22.1-26.8-47.4-50.3-57.3-16.7-7-26.7,3.2-32,17.8-1.1,4.7-1.8,8.4-2.6,13.3v.2Z"/>
  <path class="st3" d="M789.5,439c-3.3-1.9-6.7-18.6-9-22.5-1.1-1.9-2.7-5.9-1.8-8.1,4.5,9.9,8.1,20.1,10.8,30.6Z"/>
  <path class="st3" d="M793.3,531.4c-1.7-2.9,3.1-23.1,2.8-28.3,0-.6.9-2.2,1.3-2.8-.4,7.7-1.7,24-4.1,31.1Z"/>
  <path class="st6" d="M536.8,367.2c18.1-1.9,39.1,2.9,53.7,13.9,15.5,11.6,19.7,31.6,7.3,47.1-11.5,14.4-29.8,19.2-47.2,21.2-19.8,1-38.7-1.2-54.8-13.7-15.5-11.9-19-33.3-6.1-48.5,11.7-13.7,29.7-18.6,47.1-20Z"/>
  <path class="st9" d="M540.9,377.7c6.3,0,8.3.2,11.1,6,5.5,1.2,20.7,4.9,12.9,13.2-4.9,5.1-32.6-8.7-32.5,2.6,4,4.7,20.1,3.7,27,7.7,17.6,10,10.4,23.3-6.6,27.3-3.4,5.3-4.3,5.4-10.4,5.9h-.7c-4.5-.6-4.8-1.1-7.7-4.8-4-.8-18.5-3.3-17.5-9.9,1-4.7,6.8-6.7,10.8-5.3,4.8,1.7,25.7,7.7,27.2-.7-2.2-3.3-13.7-4.2-17.8-5-6.8-1.4-16.8-4.3-18.9-11.9-3.5-12.2,7-16.8,17-19.6,2-3.4,2.5-4.6,6.3-5.5h-.2Z"/>
  <path class="st6" d="M526.5,207.3c2.1,1.7,4.5,4.4,6.5,6.3,13.2,13.1,26.7,26,40.3,38.8-4.7,1.4-25.4,7.9-25.9,12.5-.8,8.8-.5,21.9-.5,30.9v56.2c-11.2,0-17.2.5-28.3,3.1-2.8.7-6.5,1.9-9.3,2.8-.3-17.6-.3-35.2-.2-52.7,0-33.5,4.2-32.7-27.7-22.2,4.1-8.7,11.9-20.7,17-29.1l28.1-46.6h0Z"/>
  <path class="st6" d="M744.8,424.1c4.3,4.3,12.2,37.4,13.4,45.3,4.3,29,5.6,64.4-11.5,89.6-15.9,23.4-46.7,15.4-65.6.7-22.2-17.4-39.6-41.7-52-66.9-4.6-9.3-8.5-17-9.9-27.4-.3-12.4-.2-25.4-.5-37.9,9.4,41,31,91.1,69.5,111.7,18.9,10.1,41.6,3.8,50-16.3,12.5-29.7,5.6-64.2-4.9-93.1,4-1.7,7.6-3.6,11.5-5.6h0Z"/>
  <path class="st6" d="M641.8,320.2c17.4-1,27.8,5,41.8,15,26.6,19.1,41.7,45.6,56.5,74-4,2.3-7.5,4.2-11.5,6.2-8.8-17.4-14.1-27-27.6-42.1-10.1-11.3-23.8-21.2-39-23.7-29.4-4.7-41.6,19-45.4,44.3-3.9-9.2-6.3-11.9-12.2-20.1.2-24.5,10-50.4,37.4-53.7h0Z"/>
  <path class="st6" d="M604.2,480.4l.5.6c7.4,48.3-91.1,63-118.9,20.5-3.9-7.2-4-12.8-3.9-20.8,30.7,29.4,92.1,30.2,122.2-.3h0Z"/>
  <path class="st6" d="M604.3,557.5l.3.3c.7,2.5.3,7.8-.3,10.5-7.4,32.4-52.9,39-79.9,33.3-15.7-3.3-29-9.4-37.9-22.7-4.3-7.8-4.6-12.6-4.5-21.2,30.2,29.5,92.3,29.7,122.3,0h0Z"/>
  <path class="st6" d="M482.2,519.2c1.1.6,1.3,1,2.2,1.8,30.3,28.1,92.4,27.3,120.5-2.4.2,8.6,0,13.1-3.8,20.9-11.2,17.8-35.4,24.7-55.4,25.5-18.4.8-39.8-4.7-53.6-17.5-9.2-8.5-9.7-16.6-10-28.3h.1Z"/>
  <path class="st6" d="M604.3,440.9c1.3,1.3.5,8,.3,9.7-4.5,30.8-46.7,40.6-72.5,36.8-17.9-2.6-34.2-8.5-45.4-23.3-4.3-7.5-4.7-12.4-4.6-20.8,1.5,1.5,3,2.9,4.6,4.3,28.4,24.6,92.7,22.4,117.6-6.7Z"/>
  <path class="st6" d="M667,409.9c12.8,1.9,20.8,15,26.2,25.5-3.8,2.1-27.9,10.9-10.6,21.8,2.7,1.7,12.7-5.3,15.9-7.5,1.5,5.2,2.1,9.2,2.5,14.6.5,28.6-15.8,19.7-26.8,3.1-9.1-13.8-15.2-32.8-12.8-49.3.5-3.6,2.5-6.2,5.6-8.1h0Z"/>
  <path class="st6" d="M757.7,416.8l7.7-4c18.3,39.4,29.9,111.4-1.9,145.8,10-22.6,12.2-37.8,11.5-62.6,0-2.5,0-10.8-.9-12.9h-.4c-1.5-3.6-3.1-21.2-4.5-26-1.9-6.9-3.8-13.8-5.8-20.6-1-3.4-4.7-12-4.1-14.9-.5-1.6-.9-3.1-1.5-4.6v-.2Z"/>
  <path class="st3" d="M774.1,483h-.4c-1.5-3.6-3.1-21.2-4.5-26-1.9-6.9-3.8-13.8-5.8-20.6-1-3.4-4.7-12-4.1-14.9,6.8,18.6,13.9,41.7,14.9,61.6h-.1Z"/>
  <path class="st6" d="M667.9,310.7c22.6,1.2,42.7,16.7,57.3,33,14.2,16,25.8,34.1,34.5,53.6-2.5,1.5-5.5,3.3-8.1,4.6-7.4-18.7-21.6-40.2-34.8-55.4-.9-1-5.5-5.9-6.4-6.6-2.9.6-4.9-2.3-5.3-4.9-6.7-8.9-26.7-20.1-37.2-24.3h0Z"/>
  <path class="st3" d="M705.1,335c1.9,1.7,3.6,3.2,5.3,4.9-2.9.6-4.9-2.3-5.3-4.9Z"/>
  <path class="st6" d="M830.8,372.4c3.7.3,16.8,8.7,20.9,11.2-9,5.9-23.5,16.1-32.5,20.9-7.1-3.4-14.8-7.9-21.8-11.7,11.2-6.7,22.1-13.7,33.4-20.3h0Z"/>
  <path class="st6" d="M818.3,337c1,1.6.7,22,.7,25.6-6.3,4.9-22.5,14.7-30.2,19.7-.5-6.6,0-18.5,0-25.5,7.5-5.9,20.9-13.7,29.6-19.7h0Z"/>
  <path class="st3" d="M631.5,396.7c-1.6-3.2-1-11.8,2.6-13.3-1.1,4.7-1.8,8.4-2.6,13.3Z"/>
  <path class="st5" d="M620,505c12,22.7,22.7,39.3,41.8,57,29.9,27.7,54.6,33.3,92.4,19.3,1.9.7,5.1,3.4,6.8,4.6,4.6,3.3,18.7,10.6,19.7,16.6-.9,1.8-.6,1.2-2.7,1.9-1.8.3-2.6.3-4.1,1.3l-3.2,1.9-.3-.2c-1.8,1.8,0,11.7-2.9,13.9-7.5,5.9-21.2,14.6-30.7,14.9-16.2-8.8-31.5-19.3-47.2-29.2-16-10-31.1-21.9-46.1-33.4-5.8-4.4-13.9-10.4-18.8-15.7-.8-1-1.6-2.2-2.2-3.3-.8-1.2-1.9-4.2-1.9-5.5-.2-7.8-1.9-38.6-.4-44.2h-.2Z"/>
  <path class="st9" d="M282.4,251.1c6.7-1.6,172.4-1.1,174.3-.4,1.2.5,2.4,2.3,3,3.3,1.3,3.5,1.4,7-1.7,9.6-3.7,3-13.8,2.1-18.8,2.1h-105.6c-13,0-30.3-.5-43,.2-1.8,0-3.5.2-5.3.4-15.9,1.8-30.1,7.8-42,18.6-39.9,36.2-19.7,84.4-27.6,93.4-1.4,1.6-3.6,2.4-5.7,2.6-2.2.2-4.8-.8-6.4-2.4-1.9-1.8-2.5-4.5-2.5-7.1,0-3.9.3-7.9.3-11.8,0-7.1-.4-14.2.1-21.3,1.5-22.4,9.9-43.3,25.5-59.7,12.8-13.5,36.3-27.1,55.3-27.6h0Z"/>
  <path class="st3" d="M282.4,251.1c6.7-1.6,172.4-1.1,174.3-.4,1.2.5,2.4,2.3,3,3.3-6.5-3.1-14.6-2.1-21.8-2.1h-28.2c-33.6.1-67.2,0-100.8,0s-24.2-.2-26.4-1v.2Z"/>
  <path class="st3" d="M290.7,265.9l-1.5-.7c1.7-1.2,33.5-1.1,37.8-1.1h123.2c2.9,0,5.4-.6,7.9-.5-3.7,3-13.8,2.1-18.8,2.1h-105.6c-13,0-30.3-.5-43,.2Z"/>
  <path class="st9" d="M616,264.5c-5.6-4-3.5-13.5,2.2-14.1,7.6-.7,16.3,0,24-.1,17,.7,46.5-1.6,61.9,2.3,11,2.8,21.2,8,30,15.1,17.6,13.9,28.9,34.3,31.4,56.7,1,8.7-5.1,13.8-13.2,8.1-2.6-1.8-3.4-13.8-4.5-16.7-7.1-23.5-22.3-39-44.7-47.2-4.9-1.4-10-2.2-15.1-2.5-20.4-1.2-42,.3-62.5-.2-2.9,0-7.1.5-9.4-1.2v-.2Z"/>
  <path class="st9" d="M616,264.5l.8-.7c5.7.8,14.4.4,20.4.4h38c6.4,0,23.6-.1,28.8,3.7-.8.6-.4.5-.9.7-4.9-1.4-10-2.2-15.1-2.5-20.4-1.2-42,.3-62.5-.2-2.9,0-7.1.5-9.4-1.2v-.2Z"/>
  <path class="st2" d="M373.3,716.1c9.2-6.2,15.8-10.7,22.8-19.5,3.4-3.4,8.6-12.6,12.1-14.9,11.8-7.5,27.3-14.3,39.3-21.1,8.8.8,24.1,11.8,9.8,18-2.2,1.2-4.7,2.1-6.9,3.4-19.5,10.9-39.2,21.4-58.7,32.2-7.4,4.1-14.7,8.5-22.4,12.1l-1.2-.3c-.6-3.9,4.2-3.1,5.4-5.5-.6-2-.7-2.3-.3-4.4h.1Z"/>
  <path class="st1" d="M456.3,572.9c2.4-2.3,7.8-8,10.8-4.6.5,1.9.7,2.8.9,4.7l-.6.3-1.1,3.4-.8.3c-.6-1.1-1.2-2.2-1.8-3.3-3.1.8-3,.4-5.2-1.6-1.3,1.9-1,13.3-1.6,17-.2-5.7-.7-10.5-.7-16.4v.2Z"/>
  <path class="st4" d="M618.3,569.6l.5,1.1.5-1.4c1.3-.5,1.3-.4,2.8,0,2.4,1.6,2.5,3.6,3.1,6.4l.2.8c-4.7,3.8,2.1,15.3-3.6,21.7,0-1.7,0-1.8.3-3.4,1.3-5.9,0-17.3-3.2-22.6h-.5c0,1.2-.4,1.4-1.1,2.3.3-1.8.5-3.2.9-5h0Z"/>
  <path class="st8" d="M622.1,594.9c-.4,1.6-.4,1.7-.3,3.4,5.7-6.4-1.1-17.9,3.6-21.7,1.3,14.6.4,24.6-11.4,34.7-.3-1.6,0-.9-1.1-2.1,6.7-5.3-10.8,8.5,1.1-.5,3.6-2.7,4.5-9.8,8.1-13.7h0Z"/>
  <path class="st0" d="M618.9,548.9c-.3-4.2-.3-43.4.6-45l.5,1.1c-1.5,5.6.2,36.4.4,44.2,0,1.4,1.2,4.3,1.9,5.5.6,1.1,1.5,2.2,2.2,3.3-5-3.4-3.8-3.2-5.3-8.1l-.3-1h0Z"/>
  <path class="st5" d="M369.4,726.3c-2.5,1.2-16.2,8.8-17.9,8.4,2.1-2.8,5.9-2.3,6.5-3.2,4.7-6.9,4.7-4,10.2-5.5l1.2.3h0Z"/>
  <path class="st0" d="M474.4,587.9l4.3,5.1c-.4,1-.8,1.3-1.9,1.8-2.4-1-4.2-3.4-4-6,1.3-.3.7,0,1.5-1h.1Z"/>
  <path class="st5" d="M613.9,611.2c-2,1.5-4.1,3.6-6.6,3.4v-1c1.4-2.2,3.3-3.1,5.6-4.5,1.1,1.2.8.5,1.1,2.1h0Z"/>
  <path class="st1" d="M459.4,603.7c2.5,0,3.6,1.7,5.1,3.6l-.2,1.9-.2.2c-1.3-.6-3.7-4.3-4.7-5.7h0Z"/>
</svg>