<?xml version="1.0" encoding="UTF-8"?>
<svg id="Layer_1" xmlns="http://www.w3.org/2000/svg" version="1.1" viewBox="0 0 1024 1024">
  <!-- Generator: Adobe Illustrator 29.8.2, SVG Export Plug-In . SVG Version: 2.1.1 Build 3)  -->
  <defs>
    <style>
      .st0 {
        fill: #fb9b0d;
      }

      .st1 {
        fill: #ede2c9;
      }

      .st2 {
        fill: #877458;
      }

      .st3 {
        fill: #fff;
      }
    </style>
  </defs>
  <path class="st3" d="M249.5,300.7l-.2-23.3c0-17.5.2-30.2,13.4-44,6.3-6.7,14.4-11.4,23.3-13.6,6.1-1.5,15.1-2.3,21.5-3.1,9.6-1.2,19.2-2.4,28.8-3.8l116.1-15.6,103.4-14c7-.9,14-1.9,20.9-2.9,25.7-3.7,27.3-1.2,46.3,16.8,23.4,22,46.6,44.5,70.1,66.5,9.6,9,10.6,19.3,10.4,31.9-.4,18.8.6,39.2,0,58,.4,15.2,0,30.6,0,45.8,0,2.8,0,5.9,0,8.7l.2,35c33,18,68,33.5,100.7,52.1,6,3.4,4.2,26.1,4.2,33v141.6c0,15.9,0,31.9,0,47.9s-.6,8.9-1.7,10.6c-1.4,2.4-6,5.5-8.6,6.9-12.4,6.8-25,13.4-37.6,20l-56.6,29.9c-11.5,6.1-76.9,41.8-82.5,42.6-3.1.5-6-.8-8.8-2.1-5.5-2.5-10.7-5.9-16-8.9l-27.8-15.8c-20.5-11.7-45.5-25.1-65.3-37.4-9.1,1.3-18.7,2.8-27.8,3.8-13.5,2.5-28.9,4.1-42.7,6-1.9.3-5.5.9-7.3,1-15.5,2.7-31.3,4-46.6,6.4-2.5.4-10.4,1.7-12.8,1.6-14.7,2.5-31.9,4.5-46.7,6.5-5.9.8-18.1,2.9-23.5,3.1-7.3,1.4-16.1,0-23-2.9-1.9-.8-3.7-1.7-5.4-2.7-6.6-4-14-12-15.8-19.7-4-8.9-2.8-28-2.8-38.4v-349.4c0-24.7-.8-54.1,0-78.2h0ZM479.6,211.4c-4.9.9-11.5,1.8-16.5,2.4-38.2,5.5-76.4,10.6-114.7,15.5l-29.2,3.9c-2.8.4-12.2,1.8-14.6,1.7-3.8.6-7.5,1.2-11.3,1.9-1.5.3-5.1,1.4-6.3,1.5-26.1,14.7-19.6,31.6-20.5,57.4-.2,7.4,0,15,0,22.5v390.6c0,13,0,26.1.2,39.1.1,5.7.5,10,3.5,15,6,10.1,15.3,13.2,26.5,11.6,21.5-3,43-6.1,64.5-9l109.6-14.9c3.4-.5,29.9-3.8,31.2-4.7.3-1.6.3-2.1.4-3.8-.2-4-.2-8.5-.1-12.6.4-23.9-.6-48.2.1-72.1-.6-4.9.1-12.2,4.5-15,7.3-4.8,16.1-9,23.9-13.1l37.5-19.9c7.7-4.1,16.2-8.4,23.6-12.8v-57.6c0-9.6-1-32.5,1.5-41.3,1.3-4.7,29.1-17.5,34.7-20.4l58.3-30.2-.3-149.2c-1.5.3-3,.6-4.5.8-7.1.8-14.2,1.8-21.2,2.8-13.3,1.8-31.7,6.2-44.4,5.6-24.8-1.3-31.9-22.9-30.8-43.8,1.2-22-1.2-44.5.2-65.9l-68.1,9.2c-10.8,1.5-27.3,4.4-37.7,5v-.2Z"/>
  <path class="st1" d="M249.5,300.7c1-2.4.7-5.6.7-8.3.3,40.2.4,80.4.1,120.6l.2,258v53.5c-.1,9.5-.6,18.8.2,28.2.2,2.9,1.8,12.2,1.4,14-4-8.9-2.8-28-2.8-38.4v-349.4c0-24.7-.8-54.1,0-78.2h.2Z"/>
  <path class="st1" d="M379.4,780.8c-1.5-.4-1,0-1.8-.9,10.9-1.9,34.7-5.2,47.1-6.3.4.3.9.5,1.3.8-15.5,2.7-31.3,4-46.6,6.4Z"/>
  <path class="st1" d="M319.9,789l-.5-.7.6-.6c5.1-1.2,40.6-6.3,44.7-5.9.8,0,1.3.3,2,.7-14.7,2.5-31.9,4.5-46.7,6.5h-.1Z"/>
  <path class="st1" d="M433.3,773.4l-.8-.5.2-.5c2.3,0,7.9-1.2,10.6-1.6,8.9-1.3,17.9-2.6,26.8-3.9,3-.4,4-.9,5.9.6-13.5,2.5-28.9,4.1-42.7,6h0Z"/>
  <path class="st1" d="M273.4,789.2c.4-.2.9-.4,1.3-.6,2.8.8,7.1,1.3,9.7,1.9,3.6.8,9.2.5,12,1.6-7.3,1.4-16.1,0-23-2.9Z"/>
  <path class="st3" d="M477.4,326.1c12.9,44-10.6,93.6-52.6,112-19.8,8.7-46.9,9.1-66.8.8-28.8-12-47.8-41.3-48-72.3-1.2-40.6,19.6-74.6,56.7-91,39.2-17.3,83.8-1.5,104.4,35.5,0,.2.2.5.2.7,2.6,4.5,4.7,9.3,6.1,14.3h0Z"/>
  <path class="st1" d="M471.3,311.9c2.6,4.5,4.7,9.3,6.1,14.3l-.6.6c-1.7-1.4-6.1-12.5-5.4-14.9h-.1Z"/>
  <path class="st0" d="M396.3,286.2c15-1.4,31.9,4.9,43.5,14.4,13.7,11.2,22.3,27.4,23.8,45,1.8,20.2-6,41.3-19,56.6-12.4,14.3-29.8,23.2-48.7,24.8-.4,0-.8,0-1.1.1-35.6,3.6-64.7-23.4-67.6-58.4-1.9-20.7,4.8-41.2,18.4-56.9,13.5-15.7,30.1-24.2,50.7-25.7h0Z"/>
  <path class="st3" d="M427.6,320.6c7.6,0,14.7,6.8,9.8,13.3-12.9,17.4-28.2,33.5-41.8,50.3-12.9,16-23.6-3.4-33.6-13.8-4.6-4.9-13.8-12.6-6.5-19.4,1.7-1.6,4-2.4,6.4-2.4,6.6.3,18.7,16.1,23.3,21.6,8-10.1,16.2-20.2,24.4-30,4.6-5.5,12.1-16.3,18.1-19.7h0Z"/>
  <path class="st3" d="M327.1,493.8c4.8-1.1,11.8-1.8,16.8-2.4,10.8-1.3,21.5-2.7,32.3-4.2l114.3-16,59-8.3c7.3-1,24.3-4,30.5-3.8.3.2.7.5,1,.7,7.3,5.2,6.2,14.9-3.3,16.5-9.1,1.6-18,2.8-27.1,4.2l-49.5,7.1-39.8,5.6c-5.5.8-16.1,2.6-21.4,2.8-5.3,1-10.9,1.7-16.3,2.5-27.9,4.2-56.1,7.3-84,11.7-7.8,1.2-17.6,2.2-17.1-8.9.2-3.6,2-5.3,4.6-7.4h0Z"/>
  <path class="st1" d="M423.5,498.4c-.5-.3-.3,0-.7-.8,2.3-1.9,14-2.8,17-1.7-5.3,1-10.9,1.7-16.3,2.5Z"/>
  <path class="st3" d="M330.4,569.5c-9.3-.6-10.7-14.5-2.6-16.6,6.5-1.7,15.1-2.5,21.9-3.4l42.3-5.7,76.7-10.4c16-2.2,31.9-4.5,47.9-6.5,6.3-.8,12.6-1.5,14.2,6.3.5,2.3,0,4.6-1.4,6.5-3.5,4.9-17.3,5.3-23.3,6.1l-32,4.5c-43.7,6.2-88.6,11.4-132.1,18.1-3,.5-9.1,1.7-11.7,1h.1Z"/>
  <path class="st1" d="M330.4,569.5c2.5-1.8,8.9-2.8,11.7-1-3,.5-9.1,1.7-11.7,1Z"/>
  <path class="st3" d="M467.9,610.3l-93.1,12.9-26.5,3.7c-5.3.7-10.8,1.6-16.2,2-1.9.2-3.3-.2-5-1-4.2-2.1-6.1-8.6-3.5-12.6,1.6-2.4,3.7-3.7,6.5-4.1,8-1.1,16-2,24-3.2l82.6-11.4,39-5.4c6.1-.9,27.5-5.7,30.6-.6,8.4,14-8.1,16.2-16.3,16.3-7,1.3-15.1,2.4-22.2,3.4h.1Z"/>
  <path class="st1" d="M467.9,610.3c-.8-.3-.4,0-1.1-.8,2.8-1.4,20.8-4.2,23.3-2.6-7,1.3-15.1,2.4-22.2,3.4h0Z"/>
  <path class="st2" d="M519.2,664.5c3.5,1.8,7,3.7,10.4,5.6,26,14.5,52.8,28,78.7,42.5-.6,9.3-.2,22.6-.2,32.1v58c-1.1,0-80.7-45.1-88.7-49.6v-13.7c-.3-24.9.4-50-.3-74.9h0Z"/>
  <path class="st0" d="M790.9,627h0c1,1.3.4,83.9.3,92-6.8,4.5-20.2,11.2-28,15.3-17.5,9.3-35,18.6-52.5,28.1h0c-1-2.6-.3-80.3-.3-91.8,6.6-4.1,15.2-8.4,22-12.2,19.3-10.7,39.3-20.6,58.4-31.5h.2Z"/>
  <path class="st0" d="M790.5,516.4h.4c.2.2.3.4.5.6v90.7c-3.4,2.1-7,4-10.5,5.9-23.2,12.4-46.7,24.2-69.6,37.1h-.3l-.5-.4c.4-9.5,0-21.5,0-31.3v-60c25.3-13.3,55.6-28.5,80.1-42.6h-.1Z"/>
  <path class="st2" d="M600.5,611.4c3.4.3,80.4,42.6,91,48.4-6.7,4.2-18.3,9.8-25.6,13.6-15.6,8.2-31.2,16.4-46.7,24.8-2.3.2-82.6-43.9-90.5-48.2,17.9-9.1,35.4-19.3,53.3-28.5,6.2-3.2,12.5-6.7,18.5-10.2h0Z"/>
  <path class="st2" d="M609.1,514.2c27.6,15.4,56.5,29.6,84.3,44.7-.3,11,0,23.3,0,34.4,0,16,0,31.9.2,47.9-27.9-15.4-56.9-30-84.5-45.6.5-26.7,0-54.6,0-81.4h0Z"/>
  <path class="st2" d="M698,460.9c4.7.4,75.5,37,83.9,41.5-25.9,13.3-52.8,26.8-78.2,40.9-1.3.3-1.6.7-2.9,0-8.2-4.2-16.9-8.9-25-13.2l-55.3-29.6c25-11.8,52.7-27,77.5-39.7h0Z"/>
  <path class="st0" d="M692.6,678.4l.4.2c.8,2,.3,84.1.4,92.7-7,4.1-15.7,8.4-22.9,12.3l-43.7,23.4c-.3.2-.9.3-1.2.4-.4-.8-.4-.6-.4-1.3l.2-91.5,41.6-22.1c8.6-4.6,17.4-9,25.8-14h-.2Z"/>
  <path class="st0" d="M601.5,200.2c1.8,1.1,10.3,9.6,12.7,11.8l33.7,32.8c7.5,7.3,15,14.6,22.6,21.9,4.1,4,11.6,10.8,14.8,15l-8.6,1c-15.1,2.3-31.6,3.7-46.4,6.5-33,6.2-28.6-17.1-28.6-40.4v-48.6h-.2Z"/>
  <path class="st1" d="M502.5,657.3c1.5,4,1.6,82.2,0,84.7-.2-4-.2-8.5-.1-12.6.4-23.9-.6-48.2.1-72.1h0Z"/>
  <path class="st1" d="M660.4,301.4c-.7-.3-.4,0-.9-.9,5.8-.5,17.9-4.6,22.1-1.9-7.1.8-14.2,1.8-21.2,2.8h0Z"/>
  <path class="st1" d="M287,238.3l-.8-.3c4.3-2.6,13.5-4.8,18.3-3.1-3.8.6-7.5,1.2-11.3,1.9-1.5.3-5.1,1.4-6.3,1.5h0Z"/>
</svg>