<?xml version="1.0" encoding="UTF-8"?>
<svg id="Layer_1" xmlns="http://www.w3.org/2000/svg" version="1.1" viewBox="0 0 1024 1024">
  <!-- Generator: Adobe Illustrator 29.8.2, SVG Export Plug-In . SVG Version: 2.1.1 Build 3)  -->
  <defs>
    <style>
      .st0 {
        fill: #fb9b0d;
      }

      .st1 {
        fill: #877458;
      }

      .st2 {
        font-family: MyriadPro-Regular, 'Myriad Pro';
        font-size: 12px;
      }

      .st3 {
        fill: #fff;
      }

      .st4 {
        fill: #fbe8d8;
      }
    </style>
  </defs>
  <path class="st3" d="M602.6,184.2c29.5-31.9,63.1-50.8,107.4-52.7,39.6-1.4,78.2,12.8,107.3,39.6,30.1,27.5,47.8,66,49,106.7,1.6,41.1-13.3,81.2-41.3,111.4-27.1,29-64.6,46-104.3,47.1-39.8,1.2-75.6-11.8-104.5-39.3-.9-.9-1.8-1.7-2.7-2.6,2.6,32.2,8.1,64.5,11.2,96.7.4,4.3,1,9.2,1.8,13.4l97.1-23.8,27.3-6.6c12-2.9,27.2-8.6,32.3,7.8,2.7,8.8,4.9,18.1,7.2,27l15.5,58.9c14.6,54.9,29.5,109.7,43.5,164.8,1.9,7.5,6.4,21.3,2.3,27.7-1.9,3.1-4.9,5.4-8.4,6.6-5.6,1.9-17,4.3-23.1,5.8l-47,11.6-129.5,32.3-195.1,48.8-49.8,12.4c-9.6,2.4-28.6,9.3-37.7,4.1-6-3.4-6.4-13.3-8.7-19.1-1-6.3-4.5-19.3-6.2-25.8l-11.9-48.5c-6,1.4-13.5,2.5-19.7,3.7-12.9,2.6-25.9,5.1-38.9,7.5-7.8,1.5-15.7,3.2-23.4,4.7-13.8,2.6-32.6,8.5-35.4-11.3-1.6-11-3-22.2-4.4-33.2l-7.4-54.9-25.5-197.2-15.5-121.4-4.9-38.3c-.7-5.2-2.7-18.8-2.4-23.3.5-7.5,16.7-25.4,21.5-31.5l32-40,18.2-22.9c3.3-4.2,6.9-8.9,10.5-12.8,3.2-3.3,5.8-4.7,10.2-5.6,8.2-1.7,16.6-2.8,24.9-4.1l44.5-7.1,145.4-23,66.9-10.6c9.3-1.5,27.5-4.9,36.4-5.4,6.3-.4,29.3,17.8,35.2,22.3ZM237.5,785.8c18.5-3.3,36.9-6.9,55.2-10.7,5.9-1.2,11.7-2.4,17.6-3.3-1.4-3.5-2.6-9-3.7-12.9-1-7.5-6-25.1-8-33l-14.5-57.7c-2.2-8.9-5.2-19.4-6.4-28.5-.3-2.4,1.4-5.5,2.5-7.7,4.4-4,7-4.8,12.5-6.5-.4-2.5-2-9.6-2.8-11.8v-2c-3.1-5.3-4.8-20.8,2.6-25.1,2.6-1.5,8.4-3,11.4-3.7,6.9-1.7,14-3.4,20.9-5,11.6-2.8,23.2-5.7,34.7-8.6l165.1-40.5,52.2-12.6c8.6-2.1,20.5-5.4,28.8-6.8-2.3-11.2-4.1-32.5-5.5-44.4-2.4-21.6-4.9-43.2-7.5-64.8-1.3-10.6-2.5-21.2-3.8-31.7-.6-5.1-5.8-11.7-8.2-16.5-23-45.6-20.4-107.1,8.2-150.2l.4-.6c-7.9-5.9-15.9-11.8-23.9-17.6-10.5,1.2-21.8,3.4-32.3,5.2l-48,7.9-158.6,25.2c-13.8,2.1-27.6,4.3-41.4,6.5-7.4,1.2-19.1,3.4-26.3,4,1.1,17.1,4.9,36.4,6.6,53.6.7,7.3,2.9,18.3,2,25.5-.3,2.8-1.5,5.5-3.4,7.7-5,5.8-13.5,6.5-20.7,7.5-21.4,2.8-42.6,6.9-64,9.8.6,8.3,2.3,18.8,3.4,27.3l6.3,49.3,17.2,135.7,20.2,154.9,7,53.2c1.2,9.2,2.4,20.3,4.1,29.3Z"/>
  <path class="st3" d="M313.4,490.7c8.6-1.8,15,2.4,16.3,11.1,2.2,12.7,3,27.1,5.4,39.7,4.6,25-4.1,23.3-25.5,26.7l-33.3,5.1c-11.7,2.2-17-5.4-17.9-16-1.3-15.8-5.6-34.2-5-49.9.4-9,19-10.2,26.2-11.4,11.2-1.9,22.5-3.7,33.8-5.3Z"/>
  <path class="st1" d="M307.6,512.7c1.4-.3,1-.2,2.4-.2.8,1.3,4.3,29,5,33.2-10.2,1.2-23,3.5-33.1,5.4-2.1.3-1.3.6-2.8-.3-1.6-6.5-3.7-25.3-4.7-33,10-2,23-3.8,33.2-5.3Z"/>
  <path class="st3" d="M485.3,332.7c10,0,14.2,9.7,8.7,18-1.2,1.8-6.1,3.1-8.4,3.5-14.9,2.7-29.9,4.7-44.9,7.1-30.4,4.9-60.7,9.6-91.1,14.2l-67,10.6c-10.9,1.7-23.9,4.1-34.7,5.1-6.1.4-10.8-3.9-11.3-10-.6-7.7,4-10.3,10.9-11.5,14-2.4,28-4.3,42.1-6.6l96.2-15,64.1-10.2c10-1.6,25.7-4.6,35.4-5.3Z"/>
  <path class="st3" d="M426.6,407.7c11.2-2.4,14.9,5.1,13.8,14.9-.3.5-.7,1-1,1.5-4.3,5.7-14.8,6-21.8,7.2l-34.8,5.6-124.2,19.5c-3.1.4-6,.4-8.7-1.4-2.7-1.7-4.6-4.4-5.3-7.5-1.4-6.2,2.2-10.5,8.1-11.7,6.4-1.4,12.9-2.3,19.4-3.3l35.4-5.6,119.1-19.2Z"/>
  <path class="st3" d="M472.4,266.7c7.4-1.1,13.5-.2,15.4,8,1.1,4.5-1.5,10.8-6,12-4.3,1.1-10.1,1.8-14.6,2.6l-32.3,5.1-114.4,18c-11.8,2.1-19.4-2.7-16.1-15.2,1.5-5.6,20.7-7.2,25.9-8l32.6-5.1,109.4-17.4Z"/>
  <path class="st1" d="M764.1,492.1c.3.2.5.3.8.5,19.7,70.2,50.2,190.6,68.1,255.5l-456.3,114.3c-1.6.4-1,.6-2.2,0-2-5-5.2-19.4-6.7-25.2l-12.2-48.6-32-126.7c-4.9-19.5-9.6-39.7-15-59,14.9-3,33-8,48-11.6l96.1-23.5,311.4-75.7Z"/>
  <path class="st3" d="M697.8,529.1c10.5-.9,14,9.3,18.5,16.2,11.8,18.3,26.4,13.7,43.9,18,3.3.8,5.4,9.8,6.4,13.6l18.1,68.2c3.2,11.9,6.9,24.9,9.7,37.2,3,12.8-19.3,13.6-25.5,28.6-4.9,11.9-1.8,25.6-4.8,32.7-1.1,2.6-41.1,11.6-45.7,12.7l-74.1,18.2-199,48.8c-13.4,3.6-14.7-4-20.1-14-2.3-4.3-5.6-8.5-9.4-11.6-13.6-10.9-28.2-4.5-37-9.6-2.6-1.5-3.5-6.6-4.2-9.4-5.9-22.1-11.1-44.4-16.7-66.5-3.4-13.4-7.7-27-10-40.5-.4-2.5-1.1-5,0-7.4,3.5-7.2,19.9-9.5,27-24.3,5-10.4,1.6-25.3,5.1-30.9,1.3-2.1,3.6-2.4,5.9-3,15.5-4.5,31.6-7.9,47.3-11.8l96.6-23.8,109.8-27.2c18.2-4.5,40.1-10.5,58.1-14.2Z"/>
  <path class="st0" d="M564.9,594.1c44.9-1.3,82.4,34.1,83.7,79,1.3,44.9-34,82.4-78.9,83.8-45,1.4-82.6-34-84-79-1.3-45,34.1-82.6,79.1-83.8Z"/>
  <path class="st3" d="M549.5,612.1c8.9-.7,12.9,2.8,13.8,11.8,11.4.3,33.8,4.8,27.3,21.2-3.5,8.9-14.5,3-20.2.2-5-2.5-9.1-.6-13.9,1.2-5.9,1.6-13.1,9.4-8,15.4,7,8.4,25.6,3.3,35.7,5.2,17.6,3.3,27.6,16.8,24.5,34.4-1.9,10.9-8.5,16.5-17.2,22.2.8,8.4-.5,14.3-9.4,16.8-7.6,0-10.5-2.4-12.2-9.9-6.9,0-13.6-1-19.7-4.4-12-6.7-14.3-18.5.8-22.4,4.6,1.1,8.8,3.5,13.1,5.2,9.2,3.6,21.5-1.8,24.4-11.5.5-1.6,1.1-4.8-.2-6.1-8.3-7.6-21.9-2.4-32.9-3.8-19.2-2.4-30.7-16.8-28.2-36.2,1.3-10.3,7.8-16.7,15.9-22.8-3.3-7.7-.6-13.2,6.6-16.5Z"/>
  <path class="st1" d="M695.6,550.1c1.1.9,4.5,6.1,5.6,7.6,11.2,15.1,27.1,23.1,45.8,24l25.9,97.6c-4.4,2.3-8.4,5.1-12,8.4-12.1,11.4-15.4,25.1-15.9,41-15.1,4.4-30.8,7.5-46.1,11.6-22.7,6.1-46.1,10.9-68.7,17.2-.5.2-1.1.2-1.6.2,0-.1,14-13.7,15.7-15.7,8.1-9.4,14.3-20.3,18.3-32,8.8-26.7,6.7-55.7-5.9-80.8-13.9-27.9-34.5-44.1-63.5-53.7,23-6,46.8-11,69.8-17,10.3-2.7,22.6-5.1,32.6-8.3Z"/>
  <path class="st1" d="M497.6,599.1l.3.6c-37.7,35.2-41.4,95.5-11.6,137.2,13.7,19.3,37.7,36.7,61.5,40.6-6.8,2.4-25.1,6.2-32.9,8.2-21.3,5.5-42.6,10.8-64,15.8l-5.6,1.3c-11.6-20.9-27.3-32.1-51.6-33-2.6-12.1-6-24.7-9-36.8l-14.5-59.7c18.6-11.5,28.8-28.2,29-50.1,23.6-6.3,48.4-11.2,72.1-17.4,8.7-2.3,17.9-4,26.5-6.7Z"/>
  <path class="st0" d="M703.5,154.1c71.8-7,135.6,45.5,142.6,117.3,7,71.8-45.6,135.6-117.4,142.5-71.7,6.9-135.5-45.6-142.4-117.3-7-71.7,45.5-135.5,117.2-142.5Z"/>
  <path class="st3" d="M705.8,175.9c59.8-5.9,113,37.8,118.9,97.6,5.9,59.8-37.7,113-97.5,119-59.8,6-113.1-37.7-119-97.5-5.9-59.8,37.8-113.1,97.6-119Z"/>
  <path class="st1" d="M712.8,196.3c48.5-1.9,89.3,35.9,91.2,84.3,1.9,48.5-35.9,89.3-84.4,91.2-48.5,1.9-89.3-35.9-91.2-84.3-1.9-48.5,35.9-89.3,84.3-91.2Z"/>
  <path class="st3" d="M713.1,216.6c.7,0,1.4-.1,2.2-.2,14.9-.7,11.8,16,11.8,26.2v27.9c9.6-5.6,19.8-10.8,29.6-16.1,4-2.2,8.4-4.8,13.1-3.7,2.9.7,5.4,2.6,6.8,5.3,5.9,11.1-10.3,16.8-17.7,20.5-6.9,3.6-22.1,11.3-27.7,15.4-4.3,10.2-13.4,13.8-23.4,8.1-7.8-4.5-9.6-15.1-6.5-22.9.6-1.5,3.7-5.3,4.8-6.9.1-14.1-.8-33.2.7-47.3.3-2.8,4.1-5,6.5-6.3Z"/>
  <path class="st3" d="M292.8,625.4l1.2,1.8c-.3,3.5,32.8,130.9,35.8,140.6-6.4,1.5-12.9,2.7-19.4,3.9-1.4-3.5-2.6-9-3.7-12.9-1-7.5-6-25.1-8-33l-14.5-57.7c-2.2-8.9-5.2-19.4-6.4-28.5-.3-2.4,1.4-5.5,2.5-7.7,4.4-4,7-4.8,12.5-6.5Z"/>
  <path class="st1" d="M239.4,249.9c1.2,1.2,7.2,50,7.9,55.3-15.9,1.8-33.2,4.8-49.2,7.2l-8.7,1.3c16.6-19.5,34.2-43.2,50-63.7Z"/>
  <path class="st4" d="M290.1,611.6c1.7,1.6,4.8,13.2,3.8,15.6l-1.2-1.8c-.4-2.5-2-9.6-2.8-11.8v-2Z"/>
  <text class="st2" transform="translate(213.7 478.4)"><tspan x="0" y="0">877458</tspan></text>
</svg>